<?xml version="1.0" standalone="no"?>
<!DOCTYPE svg PUBLIC "-//W3C//DTD SVG 20010904//EN"
 "http://www.w3.org/TR/2001/REC-SVG-20010904/DTD/svg10.dtd">
<svg version="1.0" xmlns="http://www.w3.org/2000/svg"
 width="225.000000pt" height="225.000000pt" viewBox="0 0 225.000000 225.000000"
 preserveAspectRatio="xMidYMid meet">

<g transform="translate(0.000000,225.000000) scale(0.100000,-0.100000)"
fill="#000000" stroke="none">
<path d="M970 2239 c-357 -46 -689 -286 -850 -614 -275 -560 -51 -1229 505
-1505 435 -216 951 -131 1294 211 342 343 426 859 211 1294 -163 329 -473 555
-837 610 -106 16 -220 17 -323 4z m200 -614 c9 -11 57 -15 257 -17 l245 -3 24
-30 24 -30 0 -433 0 -434 -34 -34 -34 -34 -527 0 -527 0 -34 34 -34 34 0 440
0 440 27 32 c14 18 36 36 47 40 12 5 141 9 287 9 221 1 269 -1 279 -14z"/>
<path d="M591 1574 c-16 -21 -21 -41 -21 -90 l0 -64 245 0 246 0 39 86 c22 47
40 88 40 90 0 2 -119 4 -264 4 l-265 0 -20 -26z m196 -16 c29 -27 30 -71 3
-98 -50 -50 -131 5 -108 73 17 47 68 60 105 25z m231 -5 c31 -42 -1 -113 -53
-113 -47 0 -84 67 -57 106 24 35 85 39 110 7z"/>
<path d="M717 1526 c-10 -26 4 -47 27 -44 15 2 21 10 21 28 0 29 -38 41 -48
16z"/>
<path d="M941 1526 c-15 -18 -4 -46 19 -46 28 0 45 27 30 45 -16 19 -34 19
-49 1z"/>
<path d="M1184 1570 c-14 -6 -30 -31 -48 -74 -14 -37 -26 -68 -26 -71 0 -3
128 -5 285 -5 l285 0 0 58 c0 66 -5 77 -43 91 -32 12 -421 13 -453 1z m400
-36 c21 -20 20 -53 -1 -76 -14 -16 -34 -18 -195 -18 -166 0 -179 1 -199 21
-14 14 -18 27 -13 42 14 46 17 47 210 47 153 0 185 -3 198 -16z"/>
<path d="M1212 1498 c6 -16 347 -19 351 -3 1 6 -64 11 -176 13 -141 2 -178 0
-175 -10z"/>
<path d="M570 1032 c0 -325 1 -350 18 -365 17 -15 69 -17 539 -17 491 0 521 1
536 18 15 17 17 57 17 365 l0 347 -555 0 -555 0 0 -348z m228 256 c16 -16 16
-110 0 -126 -19 -19 -113 -15 -133 5 -21 20 -16 110 6 124 21 13 113 11 127
-3z m790 -11 c35 -23 -22 -27 -359 -27 -292 0 -359 2 -359 13 0 8 3 17 8 21 9
10 693 3 710 -7z m-110 -94 c-3 -16 -24 -18 -238 -20 -226 -3 -271 2 -256 26
5 8 83 11 252 11 228 0 245 -1 242 -17z m-680 -105 c7 -7 12 -36 12 -65 0 -44
-4 -55 -22 -67 -33 -21 -96 -18 -119 5 -24 24 -26 100 -3 123 19 19 114 22
132 4z m797 -17 c3 -5 2 -12 -3 -15 -4 -2 -147 -5 -317 -6 -421 -2 -405 -3
-405 15 0 13 47 15 359 15 211 0 362 -4 366 -9z m-117 -88 c-3 -16 -24 -18
-242 -21 -139 -1 -244 2 -249 7 -26 26 11 31 249 31 228 0 245 -1 242 -17z
m-684 -109 c10 -10 16 -33 16 -64 0 -58 -23 -80 -82 -80 -50 0 -78 28 -78 78
0 59 22 82 80 82 31 0 54 -6 64 -16z m800 -13 c17 -28 -29 -31 -370 -29 -323
3 -349 4 -352 21 -3 16 19 17 357 17 198 0 362 -4 365 -9z m-116 -88 c-3 -16
-24 -18 -242 -21 -139 -1 -244 2 -249 7 -26 26 11 31 249 31 228 0 245 -1 242
-17z"/>
<path d="M694 1256 c-3 -8 -4 -27 -2 -43 3 -24 8 -28 41 -31 l37 -3 0 45 c0
46 0 46 -35 46 -22 0 -38 -6 -41 -14z"/>
<path d="M692 1013 c3 -36 5 -38 41 -41 l37 -3 0 40 0 41 -41 0 -40 0 3 -37z"/>
<path d="M690 800 l0 -40 40 0 40 0 0 40 0 40 -40 0 -40 0 0 -40z"/>
</g>
</svg>
