<?xml version="1.0" standalone="no"?>
<!DOCTYPE svg PUBLIC "-//W3C//DTD SVG 20010904//EN"
 "http://www.w3.org/TR/2001/REC-SVG-20010904/DTD/svg10.dtd">
<svg version="1.0" xmlns="http://www.w3.org/2000/svg"
 width="300.000000pt" height="326.000000pt" viewBox="0 0 300.000000 326.000000"
 preserveAspectRatio="xMidYMid meet">

<g transform="translate(0.000000,326.000000) scale(0.100000,-0.100000)"
fill="#000000" stroke="none">
<path d="M1385 3140 c-246 -39 -470 -207 -574 -430 -87 -187 -93 -422 -16
-612 56 -137 192 -292 326 -371 198 -117 489 -130 699 -31 189 89 338 254 407
449 26 75 28 90 28 240 -1 147 -3 167 -28 240 -80 240 -287 435 -524 496 -90
23 -236 31 -318 19z"/>
<path d="M603 1726 c-258 -84 -421 -350 -478 -781 -20 -154 -20 -415 1 -486
52 -174 185 -297 361 -334 100 -21 1925 -22 2025 -1 128 28 256 114 313 211
60 101 69 146 69 335 0 660 -251 1080 -645 1080 -61 0 -66 -2 -180 -75 -136
-88 -215 -125 -336 -160 -255 -75 -504 -26 -788 153 l-129 82 -71 0 c-45 -1
-96 -9 -142 -24z"/>
</g>
</svg>
